<?xml version="1.0" encoding="UTF-8" standalone="no"?>
<svg
   xmlns:svg="http://www.w3.org/2000/svg"
   xmlns="http://www.w3.org/2000/svg"
   width="900.0"
   height="600.0"

>
    <g transform="scale(3.99030503665169, -3.99030503665169)   translate(89.59214814814817,-41.67471870723471)" stroke-width="0.4"  fill="none">
       <!-- hidden lines -->
       <g  stroke="rgb(160,160,160)" fill="none" stroke-dasharray="0.4,0.4" >

       </g>

       <!-- solid lines -->
       <g  stroke="rgb(0,0,0)" fill="none">
			<path d="M83.78,-4.901461006679534 L30.140000000000004,-36.88617735683654 " />
			<path d="M83.78000000000002,-4.9014610066795345 L83.87391140935169,-4.843052080038935 L83.96249545918418,-4.7830017137149445 L84.04560887937802,-4.721407029290664 L84.12311724765672,-4.658367646029522 L84.19489520699264,-4.593985519757513 L84.26082666835137,-4.528364777966437 L84.32080499844663,-4.461611551404816 L84.37473319220207,-4.3938338024288734 L84.422524029641,-4.325141150391207 L84.46410021695031,-4.2556446943495185 L84.49939451149062,-4.185456833382177 L84.52834983055,-4.114691084801211 L84.55091934366598,-4.043461900556745 L84.56706654836611,-3.971884482129808 L84.57676532920465,-3.9000745942128945 L84.58000000000001,-3.8281483774796436 " />
			<path d="M84.58000000000001,-3.8281483774796357 L84.57832067138379,-3.7763182534489124 L84.5732840956074,-3.724531649323422 L84.5648945017038,-3.672832048466288 L84.55315893411552,-3.621262861187094 L84.5380872467798,-3.5698673882917955 L84.51969209485456,-3.5186887847245822 L84.49798892409231,-3.4677700233322093 L84.47299595787094,-3.4171538587812296 L84.4447341818921,-3.3668827916584307 L84.41322732656039,-3.316999032784607 L84.37850184705768,-3.2675444677716388 L84.3405869011297,-3.2185606218526406 L84.2995143246033,-3.1700886250147056 L84.25531860465499,-3.12216917746352 L84.20803685085342,-3.0748425154488577 L84.15770876399968,-3.028148377479636 L84.10437660279197,-2.9821259709569037 L84.04808514834257,-2.9368139392527914 L83.98888166657659,-2.8922503292630504 L83.92681586854462,-2.848472559460429 L83.861939868682,-2.8055173884757196 L83.79430814105028,-2.7634208842328465 L83.72397747359724,-2.72221839366392 L83.65100692047412,-2.6819445130296735 L83.5754577524499,-2.642633058870227 L83.49739340546449,-2.604317039610538 L83.33398342286152,-2.530799133320301 L83.16132569557519,-2.461637663773857 L82.98000000000005,-2.39706487187978 " />
			<path d="M30.14000000000001,-36.886177356836534 L30.01838304147076,-36.955104444157236 L29.889349988560095,-37.02127977595246 L29.753211693194444,-37.08454393005162 L29.610296124451644,-37.144744497566236 L29.46094757845472,-37.201736450056195 L29.30552584893237,-37.25538248891605 L29.144405360444352,-37.30555337613935 L28.977974266359915,-37.35212824566432 L28.806633513762353,-37.394994894550805 L28.630795877532353,-37.43405005328695 L28.450884965937153,-37.46919963457455 L28.267334200121113,-37.50035895999353 L28.080585769956237,-37.52745296399972 L27.891089568768024,-37.550416374764325 L27.699302109503037,-37.569193871419444 L27.50568542494925,-37.58374021733093 L27.31070595465857,-37.59402036907737 L27.11483342125311,-37.60000956087276 L26.91853969882225,-37.6016933642295 L26.72229767613663,-37.59906772271779 L26.52658011741767,-37.59213896173804 L26.331858523407153,-37.58092377328231 L26.138601995480652,-37.565449175721945 L25.94727610554121,-37.54575244871787 L25.758341774415868,-37.52188104341067 L25.572254161456993,-37.49389246810663 L25.389461568023552,-37.46185414973515 L25.21040435748387,-37.42584327141142 L25.035513894341697,-37.38594658649551 L24.865211505041334,-37.342260209595906 L24.699907462955338,-37.29488938502104 L24.540000000000028,-37.24394823323651 " />
			<path d="M82.98,-2.3970648718797687 L-24.540000000000017,33.666239469236835 " />
			<path d="M24.540000000000017,-37.2439482332365 L-82.98,-1.180643892119894 " />
			<path d="M-30.14000000000001,33.30846859283687 L-30.018383041470763,33.37739568015757 L-29.889349988560095,33.44357101195279 L-29.753211693194444,33.50683516605196 L-29.610296124451644,33.56703573356657 L-29.460947578454718,33.62402768605653 L-29.30552584893237,33.67767372491638 L-29.14440536044435,33.727844612139684 L-28.977974266359915,33.77441948166465 L-28.806633513762353,33.81728613055114 L-28.630795877532353,33.856341289287286 L-28.450884965937153,33.891490870574884 L-28.267334200121113,33.92265019599386 L-28.080585769956237,33.949744200000055 L-27.891089568768024,33.97270761076466 L-27.69930210950304,33.99148510741978 L-27.505685424949252,34.00603145333126 L-27.310705954658566,34.0163116050777 L-27.114833421253106,34.0223007968731 L-26.91853969882225,34.02398460022983 L-26.72229767613663,34.021358958718125 L-26.52658011741767,34.01443019773837 L-26.331858523407153,34.00321500928264 L-26.138601995480652,33.98774041172228 L-25.947276105541214,33.968043684718204 L-25.758341774415868,33.944172279411006 L-25.572254161456993,33.91618370410696 L-25.389461568023556,33.884145385735486 L-25.21040435748387,33.84813450741176 L-25.035513894341694,33.80823782249584 L-24.865211505041334,33.76455144559624 L-24.699907462955338,33.71718062102137 L-24.540000000000042,33.66623946923684 " />
			<path d="M-83.78000000000002,1.3237522426798711 L-83.87391140935169,1.2653433160392709 L-83.96249545918418,1.2052929497152802 L-84.04560887937802,1.143698265290999 L-84.12311724765672,1.0806588820298575 L-84.19489520699264,1.0162767557578503 L-84.26082666835137,0.9506560139667742 L-84.32080499844663,0.8839027874051516 L-84.37473319220207,0.81612503842921 L-84.42252402964098,0.747432386391544 L-84.46410021695031,0.6779359303498546 L-84.49939451149062,0.6077480693825117 L-84.52834983055,0.5369823208015473 L-84.55091934366598,0.46575313655708334 L-84.56706654836611,0.394175718130145 L-84.57676532920465,0.3223658302132307 L-84.58000000000001,0.250439613479988 " />
			<path d="M-84.58000000000001,0.2504396134799717 L-84.57832067138379,0.1986094894492479 L-84.5732840956074,0.14682288532375776 L-84.5648945017038,0.09512328446662383 L-84.55315893411552,0.043554097187429475 L-84.5380872467798,-0.00784137570786858 L-84.51969209485456,-0.059019979275081624 L-84.49798892409231,-0.10993874066745513 L-84.47299595787094,-0.16055490521843463 L-84.4447341818921,-0.21082597234123324 L-84.41322732656039,-0.26070973121505703 L-84.37850184705768,-0.3101642962280252 L-84.3405869011297,-0.3591481421470233 L-84.2995143246033,-0.40762013898495875 L-84.25531860465499,-0.455539586536144 L-84.20803685085342,-0.5028662485508059 L-84.15770876399968,-0.5495603865200285 L-84.10437660279197,-0.595582793042761 L-84.04808514834257,-0.6408948247468726 L-83.98888166657659,-0.6854584347366137 L-83.92681586854462,-0.7292362045392349 L-83.861939868682,-0.7721913755239442 L-83.79430814105028,-0.8142878797668174 L-83.72397747359724,-0.8554903703357446 L-83.65100692047412,-0.8957642509699906 L-83.5754577524499,-0.9350757051294367 L-83.49739340546449,-0.9733917243891259 L-83.33398342286152,-1.0469096306793628 L-83.16132569557519,-1.1160711002258064 L-82.98000000000002,-1.1806438921198927 " />
			<path d="M-30.140000000000015,33.30846859283687 L-83.78000000000002,1.3237522426798625 " />
			<path d="M78.94000000000001,-3.389879053889677 L79.02368776806102,-3.343836346508464 L79.11514968952412,-3.3008525961828568 L79.21382866010862,-3.261189621502747 L79.3191236157209,-3.225089013860766 L79.43039319359963,-3.1927706658934447 L79.54695963892448,-3.164431432091803 L79.6681129330928,-3.1402439297397295 L79.79311511851829,-3.120355487483767 L79.9212047936091,-3.1048872479386755 L80.05160175054583,-3.093933429794894 L80.18351172761018,-3.087560753922486 L80.31613124711755,-3.085808036967233 L80.44865250948493,-3.088685954914321 L80.58026831362396,-3.0961769780597796 L80.71017697368858,-3.1082354777857724 L80.83758720222863,-3.1247880044893552 L80.96172293000583,-3.1457337349718104 L81.08182803311392,-3.1709450865634636 L81.1971709386097,-3.200268494243277 L81.30704908060162,-3.2335253460197104 L81.41079317965315,-3.2705130708753347 L81.50777131943508,-3.311006372648422 L81.59739279579486,-3.354758602335802 L81.67911171479847,-3.401503260458147 L81.75243031782831,-3.450955620336609 L81.81690201348387,-3.502814462393274 L81.87213409781731,-3.556763908911614 L81.8961778962339,-3.5844203608244283 L81.91779014633504,-3.6124753480812144 L81.93693792495442,-3.6408861329287654 L81.95359206319495,-3.669609435607225 L81.96772719086329,-3.6986015002806 L81.9793217751178,-3.727818161692511 L81.98835815327072,-3.7572149124456256 L81.99482255969473,-3.786746970802305 L81.99870514679286,-3.816369348903166 L82.00000000000001,-3.8460369212996266 " />
			<path d="M82.00000000000001,-3.8460369212996337 L81.9979522755488,-3.883341264099569 L81.99181403534274,-3.920555737470225 L81.98160006694013,-3.9575906884856487 L81.9673349766855,-3.994356896704965 L81.94905313043074,-4.030765789112235 L81.92679857074477,-4.066729653496606 L81.90062491081115,-4.102161849758714 L81.8705952052692,-4.13697701863427 L81.83678179830987,-4.171091287332004 L81.79926614939221,-4.204422471590567 L81.75813863700047,-4.236890273667612 L81.71349834091434,-4.2684164757840914 L81.66545280351711,-4.298925128557739 L81.61411777071666,-4.3283427339717795 L81.55961691310344,-4.356598422438093 L81.50208152801714,-4.383624123528258 L81.44165022323995,-4.409354729961177 L81.3784685830782,-4.433728254452218 L81.31268881763715,-4.4566859790460125 L81.24446939613334,-4.478172596573155 L81.17397466512848,-4.498136343890018 L81.1013744526042,-4.516529126580698 L80.95056183502066,-4.548428450123062 L80.7934839513326,-4.573563359276588 L80.63165354742743,-4.591691791125991 L80.46662913856026,-4.6026391589625515 L80.30000000000001,-4.606300033649562 L80.13337086143976,-4.6026391589625515 L79.96834645257259,-4.591691791125991 L79.80651604866742,-4.573563359276588 L79.64943816497936,-4.548428450123062 L79.49862554739582,-4.516529126580698 L79.42602533487154,-4.498136343890018 L79.35553060386668,-4.478172596573155 L79.28731118236287,-4.4566859790460125 L79.22153141692182,-4.433728254452218 L79.15834977676008,-4.409354729961177 L79.09791847198288,-4.383624123528258 L79.04038308689658,-4.356598422438093 L78.98588222928336,-4.3283427339717795 L78.93454719648291,-4.298925128557739 L78.88650165908568,-4.2684164757840914 L78.84186136299955,-4.236890273667612 L78.80073385060781,-4.204422471590567 L78.76321820169017,-4.171091287332005 L78.72940479473083,-4.13697701863427 L78.69937508918888,-4.102161849758714 L78.67320142925526,-4.066729653496606 L78.65094686956928,-4.030765789112235 L78.63266502331452,-3.9943568967049656 L78.61839993305989,-3.957590688485649 L78.60818596465728,-3.9205557374702256 L78.60204772445123,-3.883341264099569 L78.60000000000001,-3.8460369212996373 " />
			<path d="M78.60000000000001,-3.8460369212996337 L78.60137473508804,-3.815468279187999 L78.60549671694442,-3.7849490768233105 L78.61235927894197,-3.7545286739918624 L78.62195132201627,-3.7242562706879645 L78.6342573326165,-3.6941808275410537 L78.64925740779613,-3.6643509866299335 L78.6669272874026,-3.634814992812216 L78.68723839331413,-3.605620615696208 L78.7101578756602,-3.5768150723814327 L78.73564866595069,-3.548444951092743 L78.76366953702815,-3.5205561358315363 L78.79417516974591,-3.4931937321659325 L78.86243942984675,-3.4402242533996277 L78.94000000000001,-3.3898790538896795 " />
			<path d="M-17.820000000000007,25.598506206417593 L-0.22000000000000952,19.695286745818148 " />
			<path d="M-17.82000000000001,25.59850620641759 L-18.780000000000012,25.02607280417764 " />
			<path d="M-0.22000000000000824,19.695286745818148 L-1.1800000000000077,19.1228533435782 " />
			<path d="M-18.78,25.026072804177648 L-1.1800000000000033,19.122853343578203 " />
			<path d="M-28.260000000000012,32.566094024306935 L-28.176312231939004,32.612136731688146 L-28.084850310475908,32.65512048201376 L-27.9861713398914,32.69478345669386 L-27.880876384279123,32.73088406433585 L-27.7696068064004,32.763202412303166 L-27.653040361075547,32.79154164610481 L-27.531887066907228,32.81572914845688 L-27.406884881481737,32.83561759071284 L-27.278795206390917,32.85108583025794 L-27.148398249454193,32.86203964840172 L-27.01648827238984,32.868412324274125 L-26.883868752882464,32.87016504122938 L-26.75134749051509,32.86728712328229 L-26.61973168637606,32.85979610013683 L-26.489823026311445,32.84773760041084 L-26.362412797771388,32.83118507370726 L-26.23827706999419,32.8102393432248 L-26.11817196688611,32.78502799163315 L-26.002829061390322,32.75570458395333 L-25.89295091939841,32.7224477321769 L-25.789206820346866,32.685460007321275 L-25.69222868056495,32.64496670554819 L-25.60260720420517,32.60121447586081 L-25.52088828520156,32.554469817738465 L-25.44756968217171,32.505017457860006 L-25.383097986516162,32.45315861580334 L-25.327865902182715,32.399209169285 L-25.303822103766134,32.37155271737218 L-25.282209853664995,32.343497730115395 L-25.2630620750456,32.31508694526784 L-25.24640793680508,32.286363642589386 L-25.23227280913674,32.25737157791601 L-25.22067822488222,32.2281549165041 L-25.2116418467293,32.19875816575099 L-25.205177440305306,32.16922610739431 L-25.201294853207166,32.13960372929345 L-25.200000000000014,32.109936156896985 " />
			<path d="M-25.200000000000014,32.10993615689698 L-25.20204772445122,32.07263181409704 L-25.20818596465728,32.03541734072639 L-25.218399933059885,31.99838238971096 L-25.23266502331452,31.961616181491646 L-25.250946869569287,31.925207289084376 L-25.27320142925526,31.889243424700005 L-25.299375089188878,31.8538112284379 L-25.329404794730827,31.81899605956234 L-25.36321820169016,31.784881790864606 L-25.40073385060781,31.751550606606045 L-25.44186136299955,31.719082804529002 L-25.486501659085686,31.68755660241252 L-25.534547196482915,31.657047949638873 L-25.58588222928336,31.627630344224833 L-25.64038308689658,31.59937465575852 L-25.69791847198288,31.572348954668353 L-25.75834977676008,31.546618348235434 L-25.821531416921815,31.522244823744394 L-25.887311182362875,31.4992870991506 L-25.955530603866688,31.477800481623458 L-26.026025334871537,31.457836734306593 L-26.098625547395816,31.439443951615914 L-26.24943816497936,31.407544628073552 L-26.406516048667427,31.382409718920023 L-26.568346452572595,31.36428128707062 L-26.73337086143976,31.35333391923406 L-26.900000000000013,31.34967304454705 L-27.066629138560266,31.35333391923406 L-27.23165354742743,31.36428128707062 L-27.3934839513326,31.382409718920023 L-27.550561835020666,31.407544628073552 L-27.70137445260421,31.439443951615914 L-27.77397466512849,31.457836734306593 L-27.844469396133334,31.477800481623458 L-27.91268881763715,31.4992870991506 L-27.97846858307821,31.522244823744394 L-28.041650223239944,31.546618348235434 L-28.102081528017145,31.572348954668353 L-28.15961691310344,31.59937465575852 L-28.214117770716665,31.627630344224833 L-28.26545280351711,31.657047949638873 L-28.31349834091434,31.68755660241252 L-28.358138637000476,31.719082804529002 L-28.399266149392215,31.751550606606045 L-28.436781798309866,31.784881790864606 L-28.4705952052692,31.81899605956234 L-28.500624910811148,31.8538112284379 L-28.526798570744766,31.889243424700005 L-28.54905313043074,31.925207289084376 L-28.567334976685505,31.961616181491646 L-28.58160006694014,31.99838238971096 L-28.591814035342747,32.03541734072639 L-28.597952275548806,32.07263181409704 L-28.600000000000012,32.10993615689698 " />
			<path d="M-28.600000000000012,32.10993615689698 L-28.59862526491198,32.14050479900861 L-28.594503283055605,32.171024001373304 L-28.58764072105805,32.20144440420475 L-28.57804867798376,32.23171680750865 L-28.56574266738352,32.26179225065556 L-28.550742592203893,32.29162209156668 L-28.533072712597427,32.3211580853844 L-28.512761606685885,32.3503524625004 L-28.489842124339823,32.37915800581518 L-28.46435133404934,32.407528127103866 L-28.43633046297188,32.43541694236507 L-28.405824830254115,32.46277934603068 L-28.337560570153283,32.51574882479699 L-28.26000000000002,32.566094024306935 " />
			<path d="M-19.74000000000001,24.453639401937696 L-2.1400000000000112,18.550419941338255 " />
			<path d="M-19.740000000000013,24.453639401937696 L-20.700000000000014,23.88120599969775 " />
			<path d="M-2.1400000000000103,18.55041994133825 L-3.1000000000000094,17.977986539098307 " />
			<path d="M-20.700000000000003,23.881205999697755 L-3.100000000000005,17.97798653909831 " />
			<path d="M-21.660000000000004,23.308772597457807 L-4.060000000000006,17.405553136858366 " />
			<path d="M-21.660000000000007,23.308772597457807 L-22.620000000000005,22.73633919521786 " />
			<path d="M-4.060000000000002,17.405553136858362 L-5.020000000000003,16.833119734618414 " />
			<path d="M-22.620000000000005,22.736339195217862 L-5.020000000000007,16.833119734618418 " />
			<path d="M-23.580000000000005,22.163905792977914 L-5.9800000000000075,16.260686332378473 " />
			<path d="M-23.580000000000005,22.16390579297791 L-24.54000000000001,21.591472390737966 " />
			<path d="M-5.980000000000004,16.26068633237847 L-6.940000000000005,15.688252930138523 " />
			<path d="M-24.540000000000006,21.59147239073797 L-6.940000000000008,15.688252930138527 " />
			<path d="M-25.5,21.01903898849802 L-7.900000000000002,15.115819527898578 " />
			<path d="M-25.500000000000007,21.01903898849802 L-26.460000000000008,20.446605586258073 " />
			<path d="M-7.900000000000003,15.115819527898577 L-8.860000000000003,14.54338612565863 " />
			<path d="M-26.460000000000004,20.446605586258077 L-8.860000000000007,14.543386125658632 " />
			<path d="M-27.42,19.87417218401813 L-9.820000000000004,13.970952723418687 " />
			<path d="M-27.420000000000005,19.87417218401813 L-28.380000000000006,19.30173878177818 " />
			<path d="M-9.820000000000004,13.970952723418685 L-10.780000000000005,13.398519321178739 " />
			<path d="M-28.380000000000003,19.301738781778184 L-10.780000000000005,13.39851932117874 " />
			<path d="M-29.340000000000003,18.729305379538236 L-11.740000000000006,12.826085918938793 " />
			<path d="M-29.340000000000007,18.729305379538236 L-30.300000000000008,18.156871977298287 " />
			<path d="M-11.740000000000006,12.82608591893879 L-12.700000000000005,12.253652516698844 " />
			<path d="M-30.300000000000004,18.15687197729829 L-12.700000000000006,12.253652516698846 " />
			<path d="M-31.26,17.584438575058343 L-13.660000000000004,11.681219114458901 " />
			<path d="M-31.26000000000001,17.584438575058343 L-32.220000000000006,17.012005172818395 " />
			<path d="M-32.220000000000006,17.012005172818398 L-14.620000000000005,11.108785712218953 " />
			<path d="M-13.660000000000005,11.681219114458898 L-14.620000000000006,11.10878571221895 " />
			<path d="M55.02000000000001,-13.926231363868686 L24.660000000000014,-32.02943770970699 " />
			<path d="M24.660000000000007,-32.02943770970698 L-39.82,-10.402188231329019 " />
			<path d="M55.02000000000001,-13.926231363868686 L-9.459999999999999,7.701018114509277 " />
			<path d="M-9.46,7.701018114509274 L-39.82,-10.402188231329026 " />
			<path d="M25.540000000000013,-35.23148705348669 L25.62368776806102,-35.18544434610548 L25.715149689524118,-35.142460595779866 L25.813828660108626,-35.10279762109976 L25.919123615720903,-35.06669701345778 L26.030393193599625,-35.03437866549046 L26.14695963892448,-35.00603943168881 L26.268112933092798,-34.98185192933674 L26.39311511851829,-34.96196348708078 L26.521204793609108,-34.94649524753569 L26.651601750545833,-34.935541429391904 L26.783511727610186,-34.9291687535195 L26.916131247117562,-34.927416036564246 L27.048652509484935,-34.930293954511335 L27.180268313623966,-34.93778497765679 L27.31017697368858,-34.949843477382785 L27.437587202228638,-34.96639600408636 L27.561722930005836,-34.98734173456882 L27.681828033113916,-35.01255308616047 L27.797170938609703,-35.04187649384029 L27.907049080601617,-35.07513334561672 L28.01079317965316,-35.11212107047235 L28.107771319435077,-35.15261437224543 L28.197392795794855,-35.196366601932816 L28.279111714798464,-35.24311126005516 L28.352430317828315,-35.29256361993362 L28.416902013483863,-35.344422461990284 L28.47213409781731,-35.39837190850862 L28.496177896233892,-35.42602836042144 L28.51779014633503,-35.45408334767823 L28.536937924954426,-35.48249413252578 L28.553592063194944,-35.51121743520424 L28.567727190863284,-35.54020949987761 L28.579321775117805,-35.56942616128952 L28.588358153270725,-35.598822912042635 L28.59482255969472,-35.628354970399315 L28.59870514679286,-35.657977348500175 L28.600000000000012,-35.68764492089664 " />
			<path d="M28.600000000000012,-35.687644920896645 L28.597952275548806,-35.72494926369658 L28.591814035342747,-35.76216373706723 L28.58160006694014,-35.79919868808266 L28.567334976685505,-35.835964896301974 L28.54905313043074,-35.87237378870925 L28.526798570744766,-35.90833765309362 L28.500624910811148,-35.943769849355725 L28.4705952052692,-35.97858501823128 L28.436781798309866,-36.01269928692901 L28.399266149392215,-36.04603047118758 L28.358138637000476,-36.07849827326462 L28.31349834091434,-36.1100244753811 L28.26545280351711,-36.14053312815475 L28.214117770716665,-36.16995073356879 L28.159616913103445,-36.198206422035106 L28.102081528017145,-36.22523212312527 L28.041650223239944,-36.25096272955819 L27.97846858307821,-36.27533625404923 L27.91268881763715,-36.298293978643024 L27.844469396133338,-36.31978059617017 L27.77397466512849,-36.33974434348703 L27.70137445260421,-36.35813712617771 L27.550561835020666,-36.39003644972007 L27.3934839513326,-36.4151713588736 L27.23165354742743,-36.433299790723005 L27.066629138560266,-36.44424715855956 L26.900000000000013,-36.44790803324658 L26.73337086143976,-36.44424715855956 L26.568346452572595,-36.433299790723005 L26.406516048667427,-36.4151713588736 L26.24943816497936,-36.39003644972007 L26.098625547395816,-36.35813712617771 L26.026025334871537,-36.33974434348703 L25.95553060386669,-36.31978059617017 L25.887311182362875,-36.298293978643024 L25.821531416921815,-36.27533625404923 L25.75834977676008,-36.25096272955819 L25.69791847198288,-36.22523212312527 L25.640383086896584,-36.198206422035106 L25.58588222928336,-36.16995073356879 L25.534547196482915,-36.14053312815475 L25.486501659085686,-36.1100244753811 L25.44186136299955,-36.07849827326462 L25.40073385060781,-36.04603047118758 L25.36321820169016,-36.01269928692901 L25.329404794730827,-35.97858501823128 L25.299375089188878,-35.943769849355725 L25.27320142925526,-35.90833765309362 L25.250946869569287,-35.87237378870925 L25.23266502331452,-35.835964896301974 L25.218399933059885,-35.79919868808266 L25.20818596465728,-35.76216373706723 L25.20204772445122,-35.72494926369658 L25.200000000000014,-35.687644920896645 " />
			<path d="M25.200000000000014,-35.687644920896645 L25.201374735088045,-35.65707627878501 L25.20549671694442,-35.62655707642032 L25.212359278941975,-35.59613667358887 L25.221951322016267,-35.565864270284976 L25.234257332616504,-35.53578882713806 L25.249257407796133,-35.50595898622694 L25.2669272874026,-35.476422992409226 L25.28723839331414,-35.44722861529322 L25.310157875660202,-35.418423071978445 L25.335648665950686,-35.39005295068976 L25.363669537028144,-35.36216413542855 L25.39417516974591,-35.334801731762944 L25.462439429846743,-35.28183225299664 L25.540000000000006,-35.23148705348669 " />
			<path d="M-81.66000000000001,0.7244860247099267 L-81.576312231939,0.7705287320911396 L-81.4848503104759,0.813512482416747 L-81.3861713398914,0.8531754570968565 L-81.28087638427913,0.8892760647388375 L-81.1696068064004,0.9215944127061586 L-81.05304036107555,0.9499336465078004 L-80.93188706690722,0.9741211488598742 L-80.80688488148174,0.9940095911158365 L-80.67879520639092,1.0094778306609278 L-80.5483982494542,1.0204316488047094 L-80.41648827238984,1.0268043246771175 L-80.28386875288247,1.0285570416323706 L-80.15134749051509,1.0256791236852827 L-80.01973168637606,1.018188100539824 L-79.88982302631145,1.0061296008138312 L-79.76241279777139,0.9895770741102484 L-79.63827706999419,0.968631343627793 L-79.5181719668861,0.9434199920361401 L-79.40282906139032,0.9140965843563266 L-79.29295091939841,0.8808397325798931 L-79.18920682034687,0.8438520077242688 L-79.09222868056494,0.8033587059511818 L-79.00260720420516,0.7596064762638015 L-78.92088828520156,0.7128618181414568 L-78.84756968217171,0.6634094582629946 L-78.78309798651615,0.6115506162063291 L-78.72786590218271,0.5576011696879895 L-78.70382210376613,0.5299447177751753 L-78.68220985366499,0.5018897305183891 L-78.6630620750456,0.47347894567083837 L-78.64640793680508,0.44475564299237885 L-78.63227280913674,0.4157635783190035 L-78.62067822488223,0.38654691690709253 L-78.6116418467293,0.3571501661539778 L-78.6051774403053,0.3276181077972985 L-78.60129485320716,0.29799572969643784 L-78.60000000000001,0.26832815729997683 " />
			<path d="M-78.60000000000001,0.2683281572999699 L-78.60204772445123,0.2310238145000344 L-78.60818596465728,0.19380934112937845 L-78.61839993305989,0.1567743901139549 L-78.63266502331452,0.12000818189463844 L-78.65094686956928,0.08359928948736892 L-78.67320142925526,0.04763542510299784 L-78.69937508918888,0.012203228840889535 L-78.72940479473083,-0.022611940034666655 L-78.76321820169015,-0.05672620873240086 L-78.80073385060781,-0.09005739299096327 L-78.84186136299955,-0.12252519506800802 L-78.88650165908568,-0.1540513971844879 L-78.93454719648291,-0.1845600499581353 L-78.98588222928336,-0.2139776553721759 L-79.04038308689658,-0.2422333438384895 L-79.09791847198288,-0.2692590449286547 L-79.15834977676008,-0.2949896513615735 L-79.22153141692182,-0.31936317585261387 L-79.28731118236287,-0.3423209004464085 L-79.35553060386668,-0.3638075179735517 L-79.42602533487154,-0.38377126529041516 L-79.49862554739582,-0.4021640479810946 L-79.64943816497936,-0.4340633715234581 L-79.80651604866742,-0.45919828067698487 L-79.96834645257259,-0.4773267125263876 L-80.13337086143976,-0.4882740803629475 L-80.30000000000001,-0.49193495504995877 L-80.46662913856026,-0.4882740803629476 L-80.63165354742743,-0.4773267125263876 L-80.7934839513326,-0.45919828067698487 L-80.95056183502066,-0.4340633715234581 L-81.1013744526042,-0.40216404798109473 L-81.17397466512848,-0.38377126529041516 L-81.24446939613334,-0.3638075179735518 L-81.31268881763715,-0.3423209004464087 L-81.3784685830782,-0.319363175852614 L-81.44165022323995,-0.2949896513615735 L-81.50208152801714,-0.2692590449286547 L-81.55961691310344,-0.2422333438384897 L-81.61411777071666,-0.213977655372176 L-81.66545280351711,-0.18456004995813524 L-81.71349834091434,-0.15405139718448801 L-81.75813863700047,-0.12252519506800819 L-81.79926614939221,-0.09005739299096355 L-81.83678179830986,-0.05672620873240125 L-81.8705952052692,-0.022611940034666878 L-81.90062491081115,0.012203228840889535 L-81.92679857074477,0.047635425102997675 L-81.94905313043074,0.08359928948736867 L-81.9673349766855,0.12000818189463805 L-81.98160006694013,0.1567743901139544 L-81.99181403534274,0.19380934112937814 L-81.9979522755488,0.23102381450003429 L-82.00000000000001,0.2683281572999663 " />
			<path d="M-82.00000000000001,0.26832815729996967 L-81.99862526491198,0.2988967994116046 L-81.99450328305561,0.3294160017762928 L-81.98764072105806,0.3598364046077413 L-81.97804867798375,0.39010880791163915 L-81.96574266738352,0.42018425105854973 L-81.9507425922039,0.45001409196967007 L-81.93307271259742,0.4795500857873878 L-81.91276160668589,0.5087444629033959 L-81.88984212433982,0.5375500062181711 L-81.86435133404933,0.5659201275068604 L-81.83633046297187,0.5938089427680673 L-81.80582483025411,0.621171346433671 L-81.73756057015328,0.674140825199976 L-81.66000000000001,0.7244860247099241 " />
			<path d="M84.58000000000001,-2.0392939954798037 L84.57832067138379,-1.9874638714490804 L84.5732840956074,-1.93567726732359 L84.5648945017038,-1.8839776664664558 L84.55315893411552,-1.832408479187262 L84.5380872467798,-1.7810130062919636 L84.51969209485456,-1.7298344027247503 L84.49798892409231,-1.6789156413323774 L84.47299595787094,-1.6282994767813976 L84.4447341818921,-1.5780284096585988 L84.41322732656039,-1.5281446507847753 L84.37850184705768,-1.4786900857718068 L84.3405869011297,-1.4297062398528086 L84.2995143246033,-1.3812342430148736 L84.25531860465499,-1.333314795463688 L84.20803685085342,-1.2859881334490257 L84.15770876399968,-1.2392939954798037 L84.10437660279197,-1.1932715889570717 L84.04808514834257,-1.1479595572529595 L83.98888166657659,-1.1033959472632184 L83.92681586854462,-1.0596181774605973 L83.861939868682,-1.0166630064758877 L83.79430814105028,-0.9745665022330146 L83.72397747359724,-0.9333640116640878 L83.65100692047412,-0.8930901310298416 L83.5754577524499,-0.8537786768703952 L83.49739340546449,-0.8154626576107062 L83.33398342286152,-0.7419447513204691 L83.16132569557519,-0.6727832817740251 L82.98000000000005,-0.6082104898799479 " />
			<path d="M82.98,-0.6082104898799365 L-24.540000000000017,35.45509385123667 " />
			<path d="M-30.14000000000001,35.0973229748367 L-30.018383041470763,35.1662500621574 L-29.889349988560095,35.232425393952624 L-29.753211693194444,35.29568954805179 L-29.610296124451644,35.3558901155664 L-29.460947578454718,35.41288206805636 L-29.30552584893237,35.466528106916215 L-29.14440536044435,35.51669899413952 L-28.977974266359915,35.56327386366449 L-28.806633513762353,35.60614051255097 L-28.630795877532353,35.64519567128712 L-28.450884965937153,35.68034525257472 L-28.267334200121113,35.71150457799369 L-28.080585769956237,35.73859858199989 L-27.891089568768024,35.76156199276449 L-27.69930210950304,35.78033948941961 L-27.505685424949252,35.794885835331094 L-27.310705954658566,35.80516598707754 L-27.114833421253106,35.81115517887293 L-26.91853969882225,35.812838982229664 L-26.72229767613663,35.81021334071796 L-26.52658011741767,35.803284579738204 L-26.331858523407153,35.792069391282475 L-26.138601995480652,35.77659479372211 L-25.947276105541214,35.75689806671804 L-25.758341774415868,35.73302666141084 L-25.572254161456993,35.705038086106796 L-25.389461568023556,35.67299976773532 L-25.21040435748387,35.63698888941159 L-25.035513894341694,35.597092204495674 L-24.865211505041334,35.55340582759607 L-24.699907462955338,35.5060350030212 L-24.540000000000042,35.455093851236676 " />
			<path d="M-83.78000000000002,3.112606624679703 L-83.87391140935169,3.054197698039103 L-83.96249545918418,2.994147331715112 L-84.04560887937802,2.932552647290831 L-84.12311724765672,2.869513264029689 L-84.19489520699264,2.805131137757682 L-84.26082666835137,2.7395103959666063 L-84.32080499844663,2.6727571694049836 L-84.37473319220207,2.604979420429042 L-84.42252402964098,2.536286768391376 L-84.46410021695031,2.4667903123496866 L-84.49939451149062,2.3966024513823436 L-84.52834983055,2.325836702801379 L-84.55091934366598,2.254607518556915 L-84.56706654836611,2.183030100129977 L-84.57676532920465,2.1112202122130626 L-84.58000000000001,2.03929399547982 " />
			<path d="M-30.140000000000015,35.0973229748367 L-83.78000000000002,3.1126066246796955 " />
			<path d="M-1.180000000000005,20.017280534578116 L-1.180000000000005,19.122853343578203 " />
			<path d="M-3.1000000000000068,18.872413730098224 L-3.1000000000000068,17.97798653909831 " />
			<path d="M-5.020000000000005,17.727546925618334 L-5.020000000000005,16.833119734618418 " />
			<path d="M-6.940000000000007,16.58268012113844 L-6.940000000000007,15.688252930138525 " />
			<path d="M-8.860000000000007,15.437813316658552 L-8.860000000000007,14.543386125658632 " />
			<path d="M-10.780000000000005,14.292946512178657 L-10.780000000000005,13.398519321178739 " />
			<path d="M-12.700000000000006,13.148079707698765 L-12.700000000000006,12.253652516698846 " />
			<path d="M-14.620000000000006,12.003212903218873 L-14.620000000000006,11.108785712218953 " />
			<path d="M24.660000000000007,-31.13501051870707 L24.660000000000007,-32.02943770970698 " />
			<path d="M54.06000000000001,-13.604237575108717 L24.660000000000014,-31.135010518707073 " />
			<path d="M24.660000000000007,-31.13501051870707 L-38.86,-9.829754829089078 " />
			<path d="M-22.64000000000001,36.66257055908656 L-22.64000000000001,34.81781447764923 " />
			<path d="M79.28000000000002,2.477563319069774 L-22.640000000000008,36.662570559086554 " />
			<path d="M79.28000000000002,2.477563319069774 L79.28000000000002,0.6328072376324434 " />
			<path d="M-23.36000000000001,36.23324550740659 L-23.36000000000001,35.05930981921921 " />
			<path d="M-22.64000000000001,36.662570559086554 L-23.360000000000014,36.23324550740659 " />
			<path d="M-80.48000000000002,6.64559402912937 L-80.48000000000002,5.080346444879512 " />
			<path d="M-31.040000000000013,36.1259142444866 L-80.48,6.645594029129368 " />
			<path d="M-31.04000000000001,36.12591424448661 L-31.04000000000001,34.560666660236755 " />
			<path d="M-30.08000000000001,35.80392045572664 L-30.08000000000001,35.13219805536833 " />
			<path d="M-31.04000000000001,36.1259142444866 L-30.080000000000005,35.80392045572663 " />
			<path d="M82.98000000000002,-0.6082104898799365 L82.98000000000002,-2.3970648718797687 " />
			<path d="M-24.540000000000013,35.45509385123667 L-24.540000000000013,33.666239469236835 " />
			<path d="M-30.140000000000015,35.0973229748367 L-30.140000000000015,33.30846859283687 " />
			<path d="M-83.78000000000002,3.1126066246797026 L-83.78000000000002,1.3237522426798707 " />
			<path d="M84.58000000000001,-2.0392939954798046 L84.58000000000001,-3.8281483774796365 " />
			<path d="M-84.58000000000001,2.0392939954798046 L-84.58000000000001,0.2504396134799727 " />

       </g>
    </g>
    
</svg>
